<?xml version="1.0" encoding="UTF-8"?>
<svg id="Capa_1" data-name="Capa 1" xmlns="http://www.w3.org/2000/svg" viewBox="0 0 297.4 71">
  <defs>
    <style>
      .cls-1 {
        fill: #e9ebe8;
      }
    </style>
  </defs>
  <path class="cls-1" d="M0,71V0h24.5c11.47,0,20.32,3.08,26.55,9.25,6.23,6.17,9.35,14.95,9.35,26.35s-3.07,20.07-9.2,26.2-14.83,9.2-26.1,9.2H0ZM15.2,58.2h9.3c6.87,0,11.95-1.85,15.25-5.55,3.3-3.7,4.95-9.42,4.95-17.15s-1.65-13.37-4.95-17.1c-3.3-3.73-8.38-5.6-15.25-5.6h-9.3v45.4Z"/>
  <path class="cls-1" d="M69.7,71V0h49.4v12.8h-34.2v16.3h33v12.6h-33v16.5h35v12.8h-50.2Z"/>
  <path class="cls-1" d="M131.9,71V0h15.2v58.2h32.7v12.8h-47.9Z"/>
  <path class="cls-1" d="M196.8,71V12.8h-21.2V0h57.7v12.8h-21.2v58.2h-15.3Z"/>
  <path class="cls-1" d="M228.2,71L253.8,0h18l25.6,71h-15.8l-5.2-15.1h-27.3l-5.2,15.1h-15.7ZM253.4,43.4h18.8l-9.4-27.4-9.4,27.4Z"/>
</svg>