<?xml version="1.0" encoding="UTF-8"?>
<svg id="Capa_1" xmlns="http://www.w3.org/2000/svg" version="1.1" viewBox="0 0 98.5 18.9">
  <!-- Generator: Adobe Illustrator 29.0.0, SVG Export Plug-In . SVG Version: 2.1.0 Build 186)  -->
  <path d="M44.1,17.3c.4.6.9,1.1,1.2,1.6h-13.2c0-.5-.5-1.6-1.1-2.5s-3.6-5.4-3.6-5.4v6.3c0,.5,0,1,.2,1.6h-10.9c.2-.5.2-1,.2-1.6V2.5c0-.5,0-1-.2-1.6h10.9c-.2.5-.2,1-.2,1.5v6.5s3.4-4.5,4.3-5.7c.6-.7,1.4-2,1.4-2.5h11.4c-.9.6-1.7,1.5-2.3,2.3l-4.2,5s5.3,8,5.9,9v.2ZM47.5,2.5v14.9c0,.5,0,1-.2,1.6h21v-4.9c-.5.2-1,.2-1.5.2h-8.9v-2.3h8.5v-3.8h-8.5v-2.3h8.9c.5,0,1,0,1.6.2V1h-21c.2.5.2,1,.2,1.5h-.1ZM97.5,17.3c.1.6.5,1.1.9,1.6h-11.4c0-.5-.1-1-.4-1.6l-.4-1v-.2h-6.6v.2l-.5,1c-.1.5-.4,1-.2,1.6h-9c.4-.5.6-1,.9-1.6l5.4-14.9c.2-.5.4-1,.2-1.6h15.2c-.1.5,0,1,.4,1.5l5.8,14.9h-.2ZM84.6,12.2l-1.6-4.2c-.1-.4-.2-.7-.4-1.2,0,.4-.2.7-.2,1.2s-.7,2-1.5,4.2h3.8-.1ZM11.8.9H0c.2.5.2,1,.2,1.5v14.9c0,.5,0,1-.2,1.6h11.8c-.2-.5-.2-1-.2-1.6V2.3c0-.5,0-1.1.2-1.6h0ZM93.8,2.3c0-1.2.9-2.3,2.2-2.3h.1c1.4,0,2.3,1,2.3,2.2h0c0,1.4-1,2.5-2.3,2.6s-2.3-1-2.5-2.3h0c0-.1.1-.1.1-.1ZM94.3,2.3c0,1,.9,1.8,1.8,2,1,0,1.8-.9,2-1.8,0-1.1-.9-1.8-1.8-2-1,0-1.8.7-1.8,1.7h0c0,.1-.1.1-.1.1ZM95.8,3.7h-.4V.9h1.1c.5,0,.9.4.9,1s-.2.6-.5.9l.6,1.1h-.5l-.5-1h-.6v1h-.1ZM95.8,2.3h.6c.2,0,.5-.2.5-.5s-.1-.5-.5-.5h-.6s0,1,0,1Z"/>
</svg>