<?xml version="1.0" encoding="UTF-8"?>
<svg id="Capa_1" xmlns="http://www.w3.org/2000/svg" version="1.1" viewBox="0 0 98.5 18.2">
  <!-- Generator: Adobe Illustrator 29.0.0, SVG Export Plug-In . SVG Version: 2.1.0 Build 186)  -->
  <defs>
    <style>
      .st0 {
        fill: #050b25;
      }
    </style>
  </defs>
  <path class="st0" d="M44.1,16.6c.4.6.9,1.1,1.2,1.6h-13.2c0-.5-.5-1.6-1.1-2.5s-3.6-5.4-3.6-5.4v6.3c0,.5,0,1,.2,1.6h-10.9c.2-.5.2-1,.2-1.6V1.8c0-.5,0-1-.2-1.6h10.9c-.2.5-.2,1-.2,1.5v6.5s3.4-4.5,4.3-5.7C32.3,1.8,33.1.5,33.1,0h11.4c-.9.6-1.7,1.5-2.3,2.3l-4.2,5s5.3,8,5.9,9v.2h.2,0ZM47.5,1.8v14.9c0,.5,0,1-.2,1.6h21v-4.9c-.5.2-1,.2-1.5.2h-8.9v-2.3h8.5v-3.8h-8.5v-2.3h8.9c.5,0,1,0,1.6.2V.3h-21c.2.5.2,1,.2,1.5h-.1ZM97.5,16.6c0,.6.5,1.1.9,1.6h-11.4c0-.5,0-1-.4-1.6l-.4-1v-.2h-6.6v.2l-.5,1c0,.5-.4,1-.2,1.6h-9c.4-.5.6-1,.9-1.6l5.4-14.9c.2-.5.4-1,.2-1.6h15.2c0,.5,0,1,.4,1.5l5.8,14.9h-.3ZM84.6,11.5l-1.6-4.2c0-.4-.2-.7-.4-1.2,0,.4-.2.7-.2,1.2s-.7,2-1.5,4.2h3.8-.1ZM11.8.2H0c.2.5.2,1,.2,1.5v14.9c0,.5,0,1-.2,1.6h11.8c-.2-.5-.2-1-.2-1.6V1.6C11.6,1.1,11.6.5,11.8,0h0v.2Z"/>
</svg>