<?xml version="1.0" encoding="UTF-8"?>
<svg id="_レイヤー_1" data-name="レイヤー_1" xmlns="http://www.w3.org/2000/svg" version="1.1" viewBox="0 0 128 20">
  <!-- Generator: Adobe Illustrator 29.0.0, SVG Export Plug-In . SVG Version: 2.1.0 Build 186)  -->
  <defs>
    <style>
      .st0 {
        fill: #050b25;
      }
    </style>
  </defs>
  <g>
    <g>
      <path class="st0" d="M71.8,13.5h1.6v-2.3h-1.8v-1.7h2.4v-2.3h-2.4v-1.8h1.6v-2.4h-10.4c.2-.3.4-.5.5-.8l-2.4-1.1c-.6,1-1.5,2-2.4,2.9-.5.5-1,.9-1.5,1.4l2.2,1.5c.2-.2.5-.4.7-.6v.9h-2.4v2.3h2.4v1.7h-1.7v2.3h1.6c-.6,1.2-1.6,2.5-2.3,3.2l2.1,1.6c1-1,2-2.3,2.7-3.9l-1.6-.8h10.5l-1.7,1c.8,1.1,1.8,2.5,2.3,3.6l2.3-1.2c-.5-1-1.4-2.5-2.3-3.4ZM69.1,11.2h-.6v-1.7h.6v1.7ZM66.1,9.5v1.7h-.7v-1.7h.7ZM65.4,7.3v-1.8h.7v1.8s-.7,0-.7,0ZM69.1,7.3h-.6v-1.8h.6v1.8ZM62.4,5.5h.7v1.8h-.7v-1.8ZM62.4,9.5h.7v1.7h-.7v-1.7Z"/>
      <path class="st0" d="M62.7,14.3c.4.8.9,3,.9,3.7l2.5-.5c-.3-1.7-.5-2.6-1.2-3.7l-2.3.6Z"/>
      <path class="st0" d="M66.1,14.4c.5.8,1.3,2.8,1.3,3.6l2.5-.6c-.3-1.5-.8-2.5-1.4-3.6l-2.4.7Z"/>
    </g>
    <path class="st0" d="M92.2,3.4h-7.7v.4l-1.6-1.5c-1.3.8-3.3,1.4-5.6,1.7,0,0,0,0,0,0v13.4h2.7v-.9h4.2v-2.7h-4.2v-3.1h4.2v-2.5h-4.2v-2.2c1.8-.4,3.4-.9,4.6-1.5v13.8h2.8V6h2.2v7.9h-1.8l.9,2.8h1.4c1.3,0,2.3-1,2.3-2.2,0-.2,0-11.1,0-11.1Z"/>
    <path class="st0" d="M106.4,14.3c.2-.2.4-.4.7-.6.7-.7,1.4-1.5,1.9-2.2l-.8-.7V3.5h-4.6V1.4h-3v2.1h-4.7v11.7h0c-.6.1-1.1.2-1.7.3l.6,2.8c.3,0,.6-.1.9-.2,2.5-.6,4.8-1.3,6.6-2.1v-1.7c1.7,1.8,4,3.3,6.7,4.2l1.5-2.4c-1.6-.5-3-1.1-4.1-1.9ZM105.3,8.9h-6.4v-.6h6.4v.6ZM105.7,11.2c-.2.3-.4.5-.7.8-.2.2-.4.4-.6.6-.4-.5-.8-.9-1-1.4,0,0,2.3,0,2.3,0ZM105.3,5.8v.6h-6.4v-.6h6.4ZM98.9,14.5v-3.3h1.4c.3.8.8,1.6,1.5,2.4-.9.3-1.9.6-2.9.9Z"/>
    <g>
      <path class="st0" d="M124.9,2.6h-9.6v6.8h9.6V2.6ZM118,4.9h4.3v2.2h-4.3s0-2.2,0-2.2Z"/>
      <path class="st0" d="M112.3,10.2v8h2.7v-.6h2.1v.6h2.7v-8h-7.4ZM114.9,15.4v-2.8h2.1v2.8h-2.1Z"/>
      <path class="st0" d="M128,10.2h-7.5v8h2.7v-.6h2.1v.6h2.7v-8h0ZM123.2,15.4v-2.8h2.1v2.8h-2.1Z"/>
    </g>
  </g>
  <g>
    <g>
      <polygon class="st0" points="48.8 19.5 44.1 19.5 44.1 0 48.8 0 48.8 19.5"/>
      <polygon class="st0" points="12.3 5.5 9.6 19.5 6.4 19.5 3.7 5.5 3.7 19.5 0 19.5 0 0 5.7 0 8 12.2 10.3 0 16.2 0 16.2 19.5 12.3 19.5 12.3 5.5"/>
    </g>
    <path class="st0" d="M30.5,14.7c0,3.4-2.8,5.3-6.1,5.3s-6.1-2-6.1-5.3V0S22.8,0,22.8,0v14.6c0,.8.7,1.5,1.5,1.5s1.5-.7,1.5-1.5V0h4.6v14.7Z"/>
    <path class="st0" d="M42.1,15.3c0,2.9-2.4,4.7-5.4,4.7s-5.4-1.8-5.4-4.7c0-.7,0-1.8,0-2.9h4.1s0,2.9,0,2.9c0,.5.4,1,1,1s1-.4,1-1V0h4.6v15.3Z"/>
  </g>
</svg>