<?xml version="1.0" encoding="UTF-8"?>
<svg id="Capa_1" xmlns="http://www.w3.org/2000/svg" version="1.1" viewBox="0 0 126 23">
  <!-- Generator: Adobe Illustrator 29.0.0, SVG Export Plug-In . SVG Version: 2.1.0 Build 186)  -->
  <defs>
    <style>
      .st0 {
        fill: #050b25;
      }
    </style>
  </defs>
  <path class="st0" d="M118.6,4.3c2.3,0,4.6.5,6.3,1.1V1.1C123.2.5,120.8,0,117.8,0,112,0,108.1,2.1,108.1,6.7c0,7.8,11.2,6.2,11.2,9.8s-2,2.2-4,2.2-5.2,0-7.3-1.1v4.4c2.2.7,5.3,1.1,7.6,1.1,6,0,10.4-1.8,10.4-7.3s-11.2-4.8-11.2-9.1,3.1-2.4,3.1-2.4c0,0,.7,0,.7,0ZM95,17h-2v6h-7V0C86.2,0,91.6.1,94,0c7.2.1,12,2.4,12,8s-4.7,9-11,9ZM94,4h-1v9h1c3.5,0,5-1.1,5-5s-1.7-4-5-4ZM75,0h7v23h-7V0ZM58,23V0h7v18h7l-1,5h-13ZM47,0h7v23h-7V0ZM36,14h-7v9h-7V0h7v9h7V0h7v23h-7v-9ZM9,17h-2v6H0V0C.2,0,5.6.1,8,0c7.2.1,12,2.4,12,8s-4.7,9-11,9ZM8,4h-1v9h1c3.5,0,5-1.1,5-5s-1.7-4-5-4Z"/>
</svg>