<?xml version="1.0" encoding="UTF-8"?>
<svg id="Capa_1" xmlns="http://www.w3.org/2000/svg" version="1.1" viewBox="0 0 104 16">
  <!-- Generator: Adobe Illustrator 29.0.0, SVG Export Plug-In . SVG Version: 2.1.0 Build 186)  -->
  <defs>
    <style>
      .st0 {
        fill: #050b25;
      }
    </style>
  </defs>
  <path class="st0" d="M0,11.7v-1.1h4v1.4c0,.7.6,1.3,1.3,1.4,0,0,.1,0,.2,0,.7,0,1.3-.3,1.4-1,.1-.4,0-.8,0-1.1-.8-1.9-6.1-2.8-6.7-5.9-.1-.7-.1-1.4,0-2C.6.9,2.7,0,5.4,0s5,.5,5,3.8v1.1h-3.7v-.9c0-.7-.5-1.3-1.2-1.4,0,0-.1,0-.2,0-.6,0-1.2.4-1.4,1,0,.3,0,.5,0,.8.4,1.7,6.1,2.7,6.7,5.8.2.8.2,1.6,0,2.5-.4,2.5-2.6,3.4-5.3,3.4S0,15,0,11.7ZM48.4,11.6v-1.1h3.9v1.4c0,.7.5,1.3,1.3,1.4,0,0,.1,0,.2,0,.7,0,1.3-.3,1.4-1,.1-.4,0-.7,0-1.1-.7-1.9-6-2.8-6.6-5.8-.1-.7-.1-1.3,0-2,.4-2.4,2.6-3.3,5.2-3.3s5,.5,5,3.7v1h-3.7v-.9c0-.7-.5-1.3-1.2-1.3,0,0-.1,0-.2,0-.6,0-1.2.3-1.3,1,0,.3,0,.5,0,.8.4,1.7,6,2.6,6.6,5.7.2.8.2,1.6,0,2.4-.4,2.5-2.6,3.4-5.2,3.4-2.8,0-5.4-1-5.4-4.3ZM62.5,12.1c0-.3,0-.7,0-1V.4h3.8v11.1c0,.2,0,.4,0,.6.2.8,1,1.2,1.8,1,.5-.1.9-.5,1-1,0-.2,0-.4,0-.6V.4h3.8v10.7c0,.3,0,.8,0,1-.3,2.8-2.4,3.7-5.2,3.7s-4.9-.9-5.2-3.7h0ZM93.5,12c0-.3,0-.7,0-1v-6.3c0-.3,0-.7,0-1,.3-2.8,2.6-3.7,5.2-3.7s4.9.9,5.2,3.7c0,.3,0,.7,0,1v.5h-3.8v-.8c0-.2,0-.4,0-.6-.3-.8-1.1-1.3-1.9-1-.5.2-.9.5-1,1,0,.2,0,.5,0,.7v6.8c0,.2,0,.4,0,.6.2.7.9,1.2,1.6,1.1.7,0,1.4-.4,1.5-1.1,0-.2,0-.4,0-.6v-2.2h-1.5v-2.2h5.3v4c0,.3,0,.7,0,1-.3,2.7-2.6,3.7-5.2,3.7s-5-1-5.2-3.7h0ZM41,15.4V1.6c0,0-2.7,13.8-2.7,13.8h-3.8l-2.6-13.8v13.8h-3.8l.3-14.9h6.1l1.9,11.7,1.9-11.7h6.1l.3,14.9h-3.7ZM21.3,15.4l-2-13.8-2.1,13.8h-4L15.9.5h6.6l2.7,14.9h-4ZM84.2,15.2l-3.7-12.4.2,12.4h-3.7V.5h5.5l3.5,12-.2-12h3.7v14.8h-5.3Z"/>
</svg>