<svg xmlns="http://www.w3.org/2000/svg" viewBox="0 0 104 16">
	<path d="M 0 11.651 V 10.511 H 3.994 v 1.45 a 1.334 1.334 0 0 0 1.494 1.346 A 1.3 1.3 0 0 0 6.932 12.3 a 1.833 1.833 0 0 0 -0.026 -1.113 C 6.133 9.243 0.851 8.363 0.18 5.333 a 5.347 5.347 0 0 1 -0.025 -2.02 C 0.567 0.88 2.705 0 5.359 0 c 2.113 0 5.025 0.492 5.025 3.754 V 4.816 H 6.674 V 3.884 A 1.275 1.275 0 0 0 5.282 2.537 a 1.25 1.25 0 0 0 -1.365 1.01 a 2.021 2.021 0 0 0 0.026 0.777 c 0.437 1.734 6.081 2.667 6.7 5.8 a 6.943 6.943 0 0 1 0.025 2.46 C 10.307 15.068 8.091 16 5.412 16 C 2.6 16 0 14.99 0 11.651 Z M 48.392 11.6 V 10.46 h 3.943 v 1.424 A 1.312 1.312 0 0 0 53.8 13.23 a 1.286 1.286 0 0 0 1.443 -0.984 a 1.759 1.759 0 0 0 -0.025 -1.088 c -0.748 -1.915 -5.979 -2.8 -6.648 -5.825 a 5.215 5.215 0 0 1 -0.026 -1.994 C 48.959 0.932 51.1 0.052 53.7 0.052 c 2.088 0 4.973 0.518 4.973 3.728 V 4.816 H 54.989 V 3.91 a 1.268 1.268 0 0 0 -1.365 -1.346 a 1.2 1.2 0 0 0 -1.34 0.984 a 2.017 2.017 0 0 0 0.025 0.777 c 0.412 1.734 6 2.641 6.623 5.747 a 6.806 6.806 0 0 1 0.025 2.434 c -0.361 2.486 -2.551 3.392 -5.2 3.392 C 50.97 15.9 48.392 14.887 48.392 11.6 Z m 14.121 0.545 a 5.876 5.876 0 0 1 -0.025 -0.985 V 0.44 H 66.25 V 11.495 a 4.111 4.111 0 0 0 0.025 0.57 a 1.468 1.468 0 0 0 2.835 0 a 3.97 3.97 0 0 0 0.026 -0.57 V 0.44 H 72.9 V 11.158 c 0 0.285 -0.026 0.829 -0.026 0.985 c -0.257 2.8 -2.448 3.7 -5.179 3.7 S 62.771 14.938 62.513 12.143 Z m 30.974 -0.156 A 7.808 7.808 0 0 1 93.435 11 V 4.712 c 0 -0.259 0.025 -0.725 0.051 -0.985 C 93.821 0.932 96.063 0.052 98.717 0.052 c 2.629 0 4.947 0.88 5.206 3.676 a 7.185 7.185 0 0 1 0.025 0.985 V 5.2 h -3.762 V 4.376 a 3.1 3.1 0 0 0 -0.051 -0.57 a 1.553 1.553 0 0 0 -2.964 0 a 3.088 3.088 0 0 0 -0.051 0.7 V 11.34 a 4.17 4.17 0 0 0 0.026 0.57 A 1.472 1.472 0 0 0 98.717 13 a 1.406 1.406 0 0 0 1.52 -1.087 a 2.09 2.09 0 0 0 0.026 -0.57 V 9.165 h -1.52 V 6.99 H 104 V 11 a 7.674 7.674 0 0 1 -0.052 0.984 c -0.257 2.718 -2.6 3.676 -5.231 3.676 S 93.744 14.705 93.487 11.987 Z M 41.049 15.378 l -0.1 -13.825 L 38.369 15.378 H 34.607 L 32.055 1.553 l -0.1 13.825 H 28.242 L 28.551 0.466 h 6.056 l 1.881 11.651 L 38.369 0.466 h 6.055 l 0.335 14.912 Z m -19.79 0 L 19.249 1.553 L 17.187 15.378 H 13.168 L 15.9 0.466 h 6.623 l 2.732 14.912 Z m 62.977 -0.155 L 80.5 2.822 l 0.206 12.4 H 77.046 V 0.466 h 5.514 l 3.5 12.013 L 85.859 0.466 h 3.685 V 15.224 Z" fill="#000000"/>
</svg>