<?xml version="1.0" encoding="UTF-8"?>
<svg id="Capa_1" xmlns="http://www.w3.org/2000/svg" xmlns:xlink="http://www.w3.org/1999/xlink" version="1.1" viewBox="0 0 189.4 34">
  <!-- Generator: Adobe Illustrator 29.0.0, SVG Export Plug-In . SVG Version: 2.1.0 Build 186)  -->
  <defs>
    <style>
      .st0 {
        fill: #050b25;
      }

      .st1 {
        clip-path: url(#clippath-11);
      }

      .st2 {
        clip-path: url(#clippath-10);
      }

      .st3 {
        clip-path: url(#clippath-13);
      }

      .st4 {
        clip-path: url(#clippath-12);
      }

      .st5 {
        clip-path: url(#clippath-1);
      }

      .st6 {
        clip-path: url(#clippath-3);
      }

      .st7 {
        clip-path: url(#clippath-4);
      }

      .st8 {
        clip-path: url(#clippath-2);
      }

      .st9 {
        clip-path: url(#clippath-7);
      }

      .st10 {
        clip-path: url(#clippath-6);
      }

      .st11 {
        clip-path: url(#clippath-9);
      }

      .st12 {
        clip-path: url(#clippath-8);
      }

      .st13 {
        clip-path: url(#clippath-5);
      }

      .st14 {
        clip-path: url(#clippath);
      }
    </style>
    <clipPath id="clippath">
      <path class="st0" d="M183.2,9.6c-2.5,0-4.9,1.1-6.5,3.1-.5.6-.7.9-1,.9-.3,0-.3-.3-.6-.8-.9-1.9-2.8-3.1-4.9-3-2.5,0-4.9,1.2-6.6,3.1-.2.2-.7.4-.7-.1v-2c0-.8-.2-.8-1.5-.8-1.2,0-1.6,0-1.6.8v22.5c0,.6.4.6,1.6.6s1.6,0,1.6-.6v-11.2c0-5.5,2.6-9.1,6-9.1,3.4,0,4,3,4,5.4v15.1c0,.7.6.5,1.5.5s1.6.2,1.6-.5v-11.4c0-5.5,2.5-9.1,6.4-9.1,2.9,0,3.7,2.4,3.7,4.7v15.5c0,.8.2.7,1.5.7s1.7,0,1.7-.7v-16.3c0-4.5-2.6-7.2-6.2-7.2h0Z"/>
    </clipPath>
    <clipPath id="clippath-1">
      <rect class="st0" y="0" width="190" height="34"/>
    </clipPath>
    <clipPath id="clippath-2">
      <path class="st0" d="M149.7.8C149.7.3,149.6,0,149.1,0h-5.3c-.4,0-.3.4-.3,1.5s0,1.3.3,1.3c2.1,0,2.7.9,2.7,2.3v27.8c0,.7-.1.8,1.6.7,1.8,0,1.7,0,1.7-.8V.8Z"/>
    </clipPath>
    <clipPath id="clippath-3">
      <rect class="st0" y="0" width="190" height="34"/>
    </clipPath>
    <clipPath id="clippath-4">
      <path class="st0" d="M44.5,11.6c2.2,0,5.2,1.8,5.2,4.6,0,2-.2,2.3-.7,2.3s-9.2,0-10.1,0-.6-.3-.6-.9c.2-3.3,2.9-6,6.2-6.1M38.7,21.4h11.8c.8,0,1.6-.4,2-1.2.4-1.4.6-2.8.4-4.3-.4-5.8-5.2-7.5-8.3-7.5-6.6,0-10.4,5.6-10.4,13s.8,6.3,2.5,8.9,5,3.5,7.7,3.5c2.7,0,7.1-1.6,8.1-2.7.2-.5.2-1.1,0-1.6-.1-.6-.4-1.4-.8-1.3-2.1,1.4-4.5,2.1-6.9,2.2-6.8,0-6.9-6.6-7-7.9,0-1.3.2-1.3.8-1.3h0Z"/>
    </clipPath>
    <clipPath id="clippath-5">
      <rect class="st0" y="0" width="190" height="34"/>
    </clipPath>
    <clipPath id="clippath-6">
      <path class="st0" d="M98.4,29.6c-1,.5-2.2.8-3.3.8-3.5,0-4.3-2.7-4.3-5v-12.6c0-.5.2-.6.9-.6h6.7c.3,0,.2-.5.2-1.6s0-1.7-.4-1.7h-6.6c-.6,0-.9-.2-.9-1V1.9c0-.9,0-.9-1.6-.5q-1.7.5-1.7,1.2v5.2c0,.6-.1,1.1-.9,1.1h-2.5c-.6,0-.4.7-.4,1.6,0,1,0,1.6.4,1.6h2.6c.5,0,.8,0,.8.5v10.6c0,6,.8,7.4,2.2,8.8,1.2,1.2,2.8,1.8,4.5,1.8,1.6,0,3.1-.5,4.5-1.1.6-.3.7-.5.5-1.8-.3-1.4-.4-1.4-.8-1.3h0Z"/>
    </clipPath>
    <clipPath id="clippath-7">
      <rect class="st0" y="0" width="190" height="34"/>
    </clipPath>
    <clipPath id="clippath-8">
      <path class="st0" d="M71,19.8c-2.1-1-5.1-1.6-5.1-4.5.1-2.1,1.9-3.8,4-3.7,1.3,0,2.6.4,3.8.9,1.4.6,1.4,0,1.9-.8.4-.7.5-1.3.3-1.5-1.8-1.2-3.9-1.8-6.1-1.7-5.1,0-7.7,3.2-7.7,6.8,0,3.5,3,5.7,5.7,7,2.8,1.3,5.7,2.3,5.7,4.7-.1,2.3-2,4-4.3,3.9-2.4,0-4.9-1.4-5.8-1.9-.5-.2-.7.3-1,1-.5,1-.8,1.7-.4,1.9,2.2,1.3,4.7,2,7.2,2.1,4.5,0,8.1-2.8,8-7.2,0-4.6-4.2-6-6.4-7h0Z"/>
    </clipPath>
    <clipPath id="clippath-9">
      <rect class="st0" y="0" width="190" height="34"/>
    </clipPath>
    <clipPath id="clippath-10">
      <path class="st0" d="M128.1,11.6c2.2,0,5.2,1.8,5.2,4.6,0,2-.2,2.3-.7,2.3s-9.2,0-10.1,0-.6-.3-.6-.9c.2-3.3,2.9-6,6.2-6.1M122.3,21.4h11.8c.8,0,1.7-.4,2-1.2.4-1.4.6-2.8.4-4.3-.4-5.8-5.2-7.5-8.3-7.5-6.6,0-10.4,5.6-10.4,13s.8,6.3,2.5,8.9,5,3.5,7.7,3.5c2.7,0,7.1-1.6,8.1-2.7.2-.5.2-1.1,0-1.6-.1-.6-.4-1.4-.8-1.3-2.1,1.4-4.5,2.1-6.9,2.2-6.8,0-6.9-6.6-7-7.9,0-1.3.2-1.3.8-1.3h0Z"/>
    </clipPath>
    <clipPath id="clippath-11">
      <rect class="st0" y="0" width="190" height="34"/>
    </clipPath>
    <clipPath id="clippath-12">
      <path class="st0" d="M26.8,9.2c-1.3,0-1.7,0-1.9.4,0,.2-3.4,17.3-3.4,17.3-.1.5-.2.7-.5.7s-.4-.1-.5-.6l-4.8-17.2c-.1-.5-.3-.7-1.5-.7s-1.4.1-1.6.7l-4.6,17.2c-.1.4-.3.6-.5.6s-.4-.5-.5-1L3.3,9.6c-.2-.6-.5-.5-1.7-.5S0,9.2,0,9.8C0,10.1,5.1,31.8,5.3,32.7c.3,1,.6,1.3,2,1.3,1.6,0,1.8-.7,2-1.3l4.4-15.5c.1-.4.2-.7.5-.7s.3.2.5.7l4.4,15.5c.2.6.4,1.3,2,1.3,1.4,0,1.7-.3,2-1.3.2-.9,5.2-22.7,5.2-23,0-.6-.5-.5-1.4-.5h0Z"/>
    </clipPath>
    <clipPath id="clippath-13">
      <rect class="st0" y="0" width="190" height="34"/>
    </clipPath>
  </defs>
  <g id="logo">
    <g>
      <path class="st0" d="M183.2,9.6c-2.5,0-4.9,1.1-6.5,3.1-.5.6-.7.9-1,.9-.3,0-.3-.3-.6-.8-.9-1.9-2.8-3.1-4.9-3-2.5,0-4.9,1.2-6.6,3.1-.2.2-.7.4-.7-.1v-2c0-.8-.2-.8-1.5-.8-1.2,0-1.6,0-1.6.8v22.5c0,.6.4.6,1.6.6s1.6,0,1.6-.6v-11.2c0-5.5,2.6-9.1,6-9.1,3.4,0,4,3,4,5.4v15.1c0,.7.6.5,1.5.5s1.6.2,1.6-.5v-11.4c0-5.5,2.5-9.1,6.4-9.1,2.9,0,3.7,2.4,3.7,4.7v15.5c0,.8.2.7,1.5.7s1.7,0,1.7-.7v-16.3c0-4.5-2.6-7.2-6.2-7.2h0Z"/>
      <g class="st14">
        <g id="Group_46">
          <g>
            <rect class="st0" y="0" width="190" height="34"/>
            <g class="st5">
              <g id="Group_45">
                <path id="Path_30" class="st0" d="M154.8,4.6h39.6v34.3h-39.6V4.6Z"/>
              </g>
            </g>
          </g>
        </g>
      </g>
    </g>
    <g>
      <path class="st0" d="M149.7.8C149.7.3,149.6,0,149.1,0h-5.3c-.4,0-.3.4-.3,1.5s0,1.3.3,1.3c2.1,0,2.7.9,2.7,2.3v27.8c0,.7-.1.8,1.6.7,1.8,0,1.7,0,1.7-.8V.8Z"/>
      <g class="st8">
        <g id="Group_48">
          <g>
            <rect class="st0" y="0" width="190" height="34"/>
            <g class="st6">
              <g id="Group_47">
                <path id="Path_33" class="st0" d="M138.4-5h16.3v43.7h-16.3V-5Z"/>
              </g>
            </g>
          </g>
        </g>
      </g>
    </g>
    <g>
      <path class="st0" d="M44.5,11.6c2.2,0,5.2,1.8,5.2,4.6,0,2-.2,2.3-.7,2.3s-9.2,0-10.1,0-.6-.3-.6-.9c.2-3.3,2.9-6,6.2-6.1M38.7,21.4h11.8c.8,0,1.6-.4,2-1.2.4-1.4.6-2.8.4-4.3-.4-5.8-5.2-7.5-8.3-7.5-6.6,0-10.4,5.6-10.4,13s.8,6.3,2.5,8.9,5,3.5,7.7,3.5c2.7,0,7.1-1.6,8.1-2.7.2-.5.2-1.1,0-1.6-.1-.6-.4-1.4-.8-1.3-2.1,1.4-4.5,2.1-6.9,2.2-6.8,0-6.9-6.6-7-7.9,0-1.3.2-1.3.8-1.3h0Z"/>
      <g class="st7">
        <g id="Group_50">
          <g>
            <rect class="st0" y="0" width="190" height="34"/>
            <g class="st13">
              <g id="Group_49">
                <path id="Path_36" class="st0" d="M29.3,3.5h28.7v35.5h-28.7V3.5Z"/>
              </g>
            </g>
          </g>
        </g>
      </g>
    </g>
    <g>
      <path class="st0" d="M98.4,29.6c-1,.5-2.2.8-3.3.8-3.5,0-4.3-2.7-4.3-5v-12.6c0-.5.2-.6.9-.6h6.7c.3,0,.2-.5.2-1.6s0-1.7-.4-1.7h-6.6c-.6,0-.9-.2-.9-1V1.9c0-.9,0-.9-1.6-.5q-1.7.5-1.7,1.2v5.2c0,.6-.1,1.1-.9,1.1h-2.5c-.6,0-.4.7-.4,1.6,0,1,0,1.6.4,1.6h2.6c.5,0,.8,0,.8.5v10.6c0,6,.8,7.4,2.2,8.8,1.2,1.2,2.8,1.8,4.5,1.8,1.6,0,3.1-.5,4.5-1.1.6-.3.7-.5.5-1.8-.3-1.4-.4-1.4-.8-1.3h0Z"/>
      <g class="st10">
        <g id="Group_52">
          <g>
            <rect class="st0" y="0" width="190" height="34"/>
            <g class="st9">
              <g id="Group_51">
                <path id="Path_39" class="st0" d="M78.7-3.8h25.7v42.6h-25.7V-3.8Z"/>
              </g>
            </g>
          </g>
        </g>
      </g>
    </g>
    <g>
      <path class="st0" d="M71,19.8c-2.1-1-5.1-1.6-5.1-4.5.1-2.1,1.9-3.8,4-3.7,1.3,0,2.6.4,3.8.9,1.4.6,1.4,0,1.9-.8.4-.7.5-1.3.3-1.5-1.8-1.2-3.9-1.8-6.1-1.7-5.1,0-7.7,3.2-7.7,6.8,0,3.5,3,5.7,5.7,7,2.8,1.3,5.7,2.3,5.7,4.7-.1,2.3-2,4-4.3,3.9-2.4,0-4.9-1.4-5.8-1.9-.5-.2-.7.3-1,1-.5,1-.8,1.7-.4,1.9,2.2,1.3,4.7,2,7.2,2.1,4.5,0,8.1-2.8,8-7.2,0-4.6-4.2-6-6.4-7h0Z"/>
      <g class="st12">
        <g id="Group_54">
          <g>
            <rect class="st0" y="0" width="190" height="34"/>
            <g class="st11">
              <g id="Group_53">
                <path id="Path_42" class="st0" d="M56.9,3.4h25.4v35.6h-25.4V3.4Z"/>
              </g>
            </g>
          </g>
        </g>
      </g>
    </g>
    <g>
      <path class="st0" d="M128.1,11.6c2.2,0,5.2,1.8,5.2,4.6,0,2-.2,2.3-.7,2.3s-9.2,0-10.1,0-.6-.3-.6-.9c.2-3.3,2.9-6,6.2-6.1M122.3,21.4h11.8c.8,0,1.7-.4,2-1.2.4-1.4.6-2.8.4-4.3-.4-5.8-5.2-7.5-8.3-7.5-6.6,0-10.4,5.6-10.4,13s.8,6.3,2.5,8.9,5,3.5,7.7,3.5c2.7,0,7.1-1.6,8.1-2.7.2-.5.2-1.1,0-1.6-.1-.6-.4-1.4-.8-1.3-2.1,1.4-4.5,2.1-6.9,2.2-6.8,0-6.9-6.6-7-7.9,0-1.3.2-1.3.8-1.3h0Z"/>
      <g class="st2">
        <g id="Group_56">
          <g>
            <rect class="st0" y="0" width="190" height="34"/>
            <g class="st1">
              <g id="Group_55">
                <path id="Path_45" class="st0" d="M112.9,3.5h28.7v35.5h-28.7V3.5Z"/>
              </g>
            </g>
          </g>
        </g>
      </g>
    </g>
    <g>
      <path class="st0" d="M26.8,9.2c-1.3,0-1.7,0-1.9.4,0,.2-3.4,17.3-3.4,17.3-.1.5-.2.7-.5.7s-.4-.1-.5-.6l-4.8-17.2c-.1-.5-.3-.7-1.5-.7s-1.4.1-1.6.7l-4.6,17.2c-.1.4-.3.6-.5.6s-.4-.5-.5-1L3.3,9.6c-.2-.6-.5-.5-1.7-.5S0,9.2,0,9.8C0,10.1,5.1,31.8,5.3,32.7c.3,1,.6,1.3,2,1.3,1.6,0,1.8-.7,2-1.3l4.4-15.5c.1-.4.2-.7.5-.7s.3.2.5.7l4.4,15.5c.2.6.4,1.3,2,1.3,1.4,0,1.7-.3,2-1.3.2-.9,5.2-22.7,5.2-23,0-.6-.5-.5-1.4-.5h0Z"/>
      <g class="st4">
        <g id="Group_58">
          <g>
            <rect class="st0" y="0" width="190" height="34"/>
            <g class="st3">
              <g id="Group_57">
                <path id="Path_48" class="st0" d="M-5,4.1h38.1v34.9H-5V4.1Z"/>
              </g>
            </g>
          </g>
        </g>
      </g>
    </g>
  </g>
</svg>