<svg xmlns="http://www.w3.org/2000/svg" xmlns:xlink="http://www.w3.org/1999/xlink" width="189.426" height="33.999" viewBox="0 0 189.426 33.999">
  <defs>
    <clipPath id="clip-path">
      <path id="Path_32" data-name="Path 32" d="M601.213-168.392a8.28,8.28,0,0,0-6.507,3.052c-.542.592-.692.866-.956.855s-.326-.3-.574-.8a5.212,5.212,0,0,0-4.921-3.026,9.041,9.041,0,0,0-6.582,3.126c-.242.242-.7.406-.7-.112v-1.957c0-.785-.208-.785-1.49-.781-1.247,0-1.636,0-1.634.791v22.494c0,.61.39.6,1.616.6.992,0,1.586.032,1.586-.6v-11.226c0-5.526,2.612-9.1,5.95-9.11,3.389-.012,4.007,3.02,4.015,5.381v15.09c0,.666.587.461,1.522.461.953,0,1.6.184,1.6-.461v-11.361c0-5.526,2.509-9.1,6.383-9.11,2.905-.01,3.724,2.367,3.733,4.716v15.472c0,.776.236.746,1.51.746s1.658-.075,1.658-.746V-161.2c-.016-4.544-2.628-7.2-6.213-7.188"/>
    </clipPath>
    <clipPath id="clip-path-2">
      <path id="Path_31" data-name="Path 31" d="M418-144H608v-34H418Z"/>
    </clipPath>
    <clipPath id="clip-path-3">
      <path id="Path_35" data-name="Path 35" d="M567.668-177.158c0-.522-.075-.842-.616-.842l-5.343.09c-.392,0-.332.329-.332,1.445,0,.822-.031,1.348.332,1.348,2.071,0,2.717.923,2.717,2.27v27.8c0,.73-.142.754,1.559.747,1.756-.005,1.686.068,1.683-.76Z"/>
    </clipPath>
    <clipPath id="clip-path-5">
      <path id="Path_38" data-name="Path 38" d="M462.52-166.427c2.186,0,5.2,1.782,5.208,4.636.008,2.007-.21,2.28-.738,2.28-.205,0-9.212.031-10.084.031-.586,0-.633-.319-.633-.873a6.416,6.416,0,0,1,6.246-6.073m-5.783,9.817,11.79-.037a1.842,1.842,0,0,0,1.973-1.118,10.719,10.719,0,0,0,.424-4.271c-.369-5.807-5.231-7.484-8.263-7.484-6.621,0-10.378,5.568-10.378,13.035,0,4.186.809,6.321,2.55,8.892s5.031,3.541,7.717,3.532c2.67-.01,7.135-1.615,8.075-2.712a2.394,2.394,0,0,0,.055-1.577c-.122-.6-.359-1.435-.791-1.27a13.11,13.11,0,0,1-6.928,2.193c-6.844.025-6.948-6.557-7-7.874-.053-1.282.166-1.306.78-1.308"/>
    </clipPath>
    <clipPath id="clip-path-7">
      <path id="Path_41" data-name="Path 41" d="M516.4-148.423a6.683,6.683,0,0,1-3.309.8c-3.5.012-4.284-2.735-4.292-5.042v-12.568c.02-.517.194-.621.858-.621l6.72-.019c.265,0,.216-.46.216-1.6s.06-1.656-.364-1.656l-6.572.017c-.59,0-.858-.185-.858-1.027v-5.919c0-.918-.092-.937-1.62-.472-1.671.509-1.671.509-1.671,1.167v5.224c0,.622-.14,1.051-.872,1.051l-2.516,0c-.611,0-.422.7-.419,1.611,0,.962-.014,1.646.419,1.646l2.62-.028c.489.047.768.07.768.567v10.566c.022,6.039.837,7.372,2.191,8.753a6.279,6.279,0,0,0,4.533,1.783,12.885,12.885,0,0,0,4.51-1.1c.641-.287.708-.493.462-1.849-.253-1.4-.411-1.445-.8-1.29"/>
    </clipPath>
    <clipPath id="clip-path-9">
      <path id="Path_44" data-name="Path 44" d="M488.979-158.206c-2.142-.989-5.136-1.608-5.136-4.542a3.9,3.9,0,0,1,3.993-3.707,11.11,11.11,0,0,1,3.839.89c1.418.593,1.374.092,1.941-.845.405-.669.518-1.3.335-1.46a10.618,10.618,0,0,0-6.107-1.715c-5.058.018-7.689,3.224-7.676,6.836.012,3.487,2.955,5.684,5.727,6.965,2.844,1.291,5.73,2.271,5.738,4.678a4.11,4.11,0,0,1-4.3,3.9c-2.437,0-4.921-1.444-5.775-1.853-.477-.228-.671.275-1.035,1.041-.462.97-.791,1.693-.427,1.915a15.4,15.4,0,0,0,7.2,2.1c4.539-.016,8.059-2.765,8.043-7.188-.016-4.627-4.236-6-6.362-7.016"/>
    </clipPath>
    <clipPath id="clip-path-11">
      <path id="Path_47" data-name="Path 47" d="M546.089-166.427c2.186,0,5.2,1.782,5.208,4.636.008,2.007-.209,2.28-.738,2.28-.205,0-9.213.031-10.084.031-.586,0-.633-.319-.633-.873a6.416,6.416,0,0,1,6.246-6.073m-5.782,9.817,11.79-.037a1.841,1.841,0,0,0,1.973-1.118,10.7,10.7,0,0,0,.424-4.271c-.368-5.807-5.23-7.484-8.263-7.484-6.621,0-10.378,5.568-10.378,13.035,0,4.186.809,6.321,2.55,8.892s5.031,3.541,7.718,3.532c2.67-.01,7.135-1.615,8.075-2.712a2.393,2.393,0,0,0,.055-1.577c-.122-.6-.359-1.435-.792-1.27a13.106,13.106,0,0,1-6.928,2.193c-6.844.025-6.948-6.557-7-7.874-.052-1.282.167-1.306.78-1.308"/>
    </clipPath>
    <clipPath id="clip-path-13">
      <path id="Path_50" data-name="Path 50" d="M444.751-168.752c-1.318,0-1.671-.1-1.906.422-.078.176-3.419,17.3-3.419,17.3-.132.507-.229.726-.49.726-.292,0-.414-.139-.511-.581L433.64-168.11c-.122-.5-.332-.682-1.5-.682s-1.428.121-1.565.682l-4.646,17.226c-.125.435-.259.578-.55.578-.261,0-.375-.507-.508-1.014l-3.6-17.1c-.2-.646-.526-.485-1.728-.485s-1.554.063-1.544.735c0,.31,5.083,21.971,5.3,22.877.258.974.586,1.292,1.959,1.286,1.6-.005,1.8-.7,2.038-1.286l4.361-15.513c.148-.436.171-.673.483-.673s.335.237.484.673l4.36,15.513c.237.585.435,1.281,2.039,1.286,1.372.005,1.7-.312,1.959-1.286.214-.906,5.17-22.744,5.162-22.988-.018-.577-.489-.476-1.391-.476"/>
    </clipPath>
  </defs>
  <g id="logo" transform="translate(-1241 356)">
    <g id="Group_46" data-name="Group 46" transform="translate(823 -178)" clip-path="url(#clip-path)">
      <g id="Group_45" data-name="Group 45" clip-path="url(#clip-path-2)">
        <path id="Path_30" data-name="Path 30" d="M572.848-173.392h39.578v34.271H572.848Z"/>
      </g>
    </g>
    <g id="Group_48" data-name="Group 48" transform="translate(823 -178)" clip-path="url(#clip-path-3)">
      <g id="Group_47" data-name="Group 47" clip-path="url(#clip-path-2)">
        <path id="Path_33" data-name="Path 33" d="M556.374-183h16.295v43.7H556.374Z"/>
      </g>
    </g>
    <g id="Group_50" data-name="Group 50" transform="translate(823 -178)" clip-path="url(#clip-path-5)">
      <g id="Group_49" data-name="Group 49" clip-path="url(#clip-path-2)">
        <path id="Path_36" data-name="Path 36" d="M447.283-174.521h28.683v35.458H447.283Z"/>
      </g>
    </g>
    <g id="Group_52" data-name="Group 52" transform="translate(823 -178)" clip-path="url(#clip-path-7)">
      <g id="Group_51" data-name="Group 51" clip-path="url(#clip-path-2)">
        <path id="Path_39" data-name="Path 39" d="M496.671-181.824h25.664v42.644H496.671Z"/>
      </g>
    </g>
    <g id="Group_54" data-name="Group 54" transform="translate(823 -178)" clip-path="url(#clip-path-9)">
      <g id="Group_53" data-name="Group 53" clip-path="url(#clip-path-2)">
        <path id="Path_42" data-name="Path 42" d="M474.941-174.583h25.4V-139h-25.4Z"/>
      </g>
    </g>
    <g id="Group_56" data-name="Group 56" transform="translate(823 -178)" clip-path="url(#clip-path-11)">
      <g id="Group_55" data-name="Group 55" clip-path="url(#clip-path-2)">
        <path id="Path_45" data-name="Path 45" d="M530.852-174.521h28.683v35.458H530.852Z"/>
      </g>
    </g>
    <g id="Group_58" data-name="Group 58" transform="translate(823 -178)" clip-path="url(#clip-path-13)">
      <g id="Group_57" data-name="Group 57" clip-path="url(#clip-path-2)">
        <path id="Path_48" data-name="Path 48" d="M413-173.918h38.142V-139H413Z"/>
      </g>
    </g>
  </g>
</svg>
